<?xml version="1.0" encoding="UTF-8" standalone="no"?>
<svg
  xmlns="http://www.w3.org/2000/svg"
  version="1.0"
  width="151.256"
  height="101.706"
  viewbox="0 0 151.256 101.706">
  <path
    d="M 111.003,0 L 111.003,18.344 L 123.896,18.344 L 109.501,71.915 C 109.501,71.915 91.887,0.998 91.636,0 L 73.006,0 C 72.743,0.975 53.684,71.919 53.684,71.919 L 40.427,18.344 L 53.851,18.344 L 53.851,0 L 0,0 L 0,18.344 L 11.932,18.344 C 11.932,18.344 32.523,100.706 32.772,101.706 L 61.678,101.706 C 61.934,100.729 75.476,49.251 75.476,49.251 C 75.476,49.251 88.343,100.716 88.591,101.706 L 117.495,101.706 C 117.755,100.723 139.422,18.344 139.422,18.344 L 151.256,18.344 L 151.256,0 L 111.003,0 z"
    style="fill:white" />
</svg>
